<?xml version="1.0" standalone="no"?>
<!DOCTYPE svg PUBLIC "-//W3C//DTD SVG 20010904//EN"
 "http://www.w3.org/TR/2001/REC-SVG-20010904/DTD/svg10.dtd">
<svg version="1.0" xmlns="http://www.w3.org/2000/svg"
 width="700.000000pt" height="700.000000pt" viewBox="0 0 700.000000 700.000000"
 preserveAspectRatio="xMidYMid meet">
<metadata>
Created by potrace 1.14, written by Peter Selinger 2001-2017
</metadata>
<g transform="translate(0.000000,700.000000) scale(0.100000,-0.100000)"
fill="#000000" stroke="none">
<path d="M3330 5899 c-52 -5 -150 -20 -217 -34 -249 -52 -447 -140 -663 -295
-335 -239 -729 -365 -1271 -405 l-87 -7 -3 85 c-4 76 -7 90 -34 129 -38 53
-99 88 -167 95 -71 6 -149 -33 -193 -95 l-30 -44 -5 -824 -5 -824 -54 -26
c-164 -75 -285 -209 -350 -387 l-26 -72 -3 -746 -3 -745 29 -55 c20 -39 41
-62 77 -84 47 -29 53 -30 191 -33 l143 -4 3 -148 c3 -148 3 -148 34 -192 89
-122 269 -122 358 0 l31 44 3 149 3 149 2409 0 2409 0 3 -149 3 -149 31 -44
c89 -122 269 -122 358 0 31 44 31 44 34 192 l3 148 143 4 c138 3 144 4 191 33
36 22 57 45 77 84 l29 55 -3 745 -3 746 -24 65 c-64 180 -188 318 -352 394
l-54 26 -5 824 -5 824 -30 44 c-89 125 -271 125 -360 0 -27 -39 -30 -53 -34
-128 l-3 -85 -87 6 c-515 37 -944 169 -1236 381 -194 141 -309 203 -493 264
-251 83 -497 112 -762 89z m360 -444 c251 -34 414 -99 607 -243 369 -273 857
-433 1467 -482 71 -5 133 -10 137 -10 5 0 9 -225 9 -500 l0 -500 -220 0 -220
0 0 126 c0 157 -18 243 -69 321 -49 76 -109 128 -190 167 l-66 31 -534 3
c-477 2 -539 1 -585 -14 -75 -25 -127 -58 -184 -117 -96 -102 -122 -182 -122
-379 l0 -138 -220 0 -220 0 0 138 c0 197 -26 277 -122 379 -57 59 -109 92
-184 117 -46 15 -108 16 -585 14 l-534 -3 -66 -31 c-81 -39 -141 -91 -190
-167 -51 -78 -69 -164 -69 -321 l0 -126 -220 0 -220 0 0 499 0 499 63 6 c34 3
98 8 142 11 297 22 644 99 905 202 206 81 304 137 580 329 229 160 584 234
910 189z m-850 -1625 l0 -110 -435 0 -435 0 0 110 0 110 435 0 435 0 0 -110z
m2190 0 l0 -110 -435 0 -435 0 0 110 0 110 435 0 435 0 0 -110z m1147 -562
c60 -15 137 -87 152 -143 7 -27 11 -225 11 -597 l0 -558 -2840 0 -2840 0 0
558 c0 372 4 570 11 597 14 52 92 129 145 143 59 15 5300 16 5361 0z"/>
</g>
</svg>
